#usda 1.0
(
    defaultPrim = "World"
    doc = """Anacapa Cornell Box — Glass Sphere variant
    Coordinate system: x∈[-1,1], y∈[-1,1], z∈[0,2]
    Camera sits at z=-2.5 looking in +z, 50° vertical FOV.
    The short Lambertian box is replaced by a glass sphere.
    """
    metersPerUnit = 1
    upAxis = "Y"
)

def Xform "World"
{
    def Material "WhiteMat"
    {
        token outputs:surface.connect = </World/WhiteMat/Shader.outputs:surface>

        def Shader "Shader"
        {
            uniform token info:id = "UsdPreviewSurface"
            color3f inputs:diffuseColor = (0.73, 0.73, 0.73)
            float inputs:metallic = 0
            float inputs:roughness = 1
            token outputs:surface
        }
    }

    def Material "RedMat"
    {
        token outputs:surface.connect = </World/RedMat/Shader.outputs:surface>

        def Shader "Shader"
        {
            uniform token info:id = "UsdPreviewSurface"
            color3f inputs:diffuseColor = (0.65, 0.05, 0.05)
            float inputs:metallic = 0
            float inputs:roughness = 1
            token outputs:surface
        }
    }

    def Material "GreenMat"
    {
        token outputs:surface.connect = </World/GreenMat/Shader.outputs:surface>

        def Shader "Shader"
        {
            uniform token info:id = "UsdPreviewSurface"
            color3f inputs:diffuseColor = (0.12, 0.45, 0.15)
            float inputs:metallic = 0
            float inputs:roughness = 1
            token outputs:surface
        }
    }

    def Material "LightMat"
    {
        token outputs:surface.connect = </World/LightMat/Shader.outputs:surface>

        def Shader "Shader"
        {
            uniform token info:id = "UsdPreviewSurface"
            color3f inputs:diffuseColor = (0, 0, 0)
            color3f inputs:emissiveColor = (15, 15, 15)
            token outputs:surface
        }
    }

    def Material "GlassMat"
    {
        token outputs:surface.connect = </World/GlassMat/Shader.outputs:surface>

        def Shader "Shader"
        {
            uniform token info:id = "UsdPreviewSurface"
            color3f inputs:diffuseColor = (1, 1, 1)
            float inputs:metallic = 0
            float inputs:roughness = 0
            float inputs:opacity = 0
            float inputs:ior = 1.5
            bool inputs:anacapa_caustic = true
            token outputs:surface
        }
    }

    def Mesh "Floor" (
        prepend apiSchemas = ["MaterialBindingAPI"]
    )
    {
        int[] faceVertexCounts = [4]
        int[] faceVertexIndices = [0, 1, 2, 3]
        rel material:binding = </World/WhiteMat>
        normal3f[] normals = [(0, 1, 0), (0, 1, 0), (0, 1, 0), (0, 1, 0)]
        point3f[] points = [(-1, -1, 0), (1, -1, 0), (1, -1, 2), (-1, -1, 2)]
        uniform token subdivisionScheme = "none"
    }

    def Mesh "Ceiling" (
        prepend apiSchemas = ["MaterialBindingAPI"]
    )
    {
        int[] faceVertexCounts = [4]
        int[] faceVertexIndices = [0, 1, 2, 3]
        rel material:binding = </World/WhiteMat>
        normal3f[] normals = [(0, -1, 0), (0, -1, 0), (0, -1, 0), (0, -1, 0)]
        point3f[] points = [(-1, 1, 2), (1, 1, 2), (1, 1, 0), (-1, 1, 0)]
        uniform token subdivisionScheme = "none"
    }

    def Mesh "BackWall" (
        prepend apiSchemas = ["MaterialBindingAPI"]
    )
    {
        int[] faceVertexCounts = [4]
        int[] faceVertexIndices = [0, 1, 2, 3]
        rel material:binding = </World/WhiteMat>
        normal3f[] normals = [(0, 0, -1), (0, 0, -1), (0, 0, -1), (0, 0, -1)]
        point3f[] points = [(-1, -1, 2), (-1, 1, 2), (1, 1, 2), (1, -1, 2)]
        uniform token subdivisionScheme = "none"
    }

    def Mesh "LeftWall" (
        prepend apiSchemas = ["MaterialBindingAPI"]
    )
    {
        int[] faceVertexCounts = [4]
        int[] faceVertexIndices = [0, 1, 2, 3]
        rel material:binding = </World/RedMat>
        normal3f[] normals = [(1, 0, 0), (1, 0, 0), (1, 0, 0), (1, 0, 0)]
        point3f[] points = [(-1, -1, 2), (-1, 1, 2), (-1, 1, 0), (-1, -1, 0)]
        uniform token subdivisionScheme = "none"
    }

    def Mesh "RightWall" (
        prepend apiSchemas = ["MaterialBindingAPI"]
    )
    {
        int[] faceVertexCounts = [4]
        int[] faceVertexIndices = [0, 1, 2, 3]
        rel material:binding = </World/GreenMat>
        normal3f[] normals = [(-1, 0, 0), (-1, 0, 0), (-1, 0, 0), (-1, 0, 0)]
        point3f[] points = [(1, -1, 0), (1, 1, 0), (1, 1, 2), (1, -1, 2)]
        uniform token subdivisionScheme = "none"
    }

    def Mesh "LightPatch" (
        prepend apiSchemas = ["MaterialBindingAPI"]
    )
    {
        int[] faceVertexCounts = [4]
        int[] faceVertexIndices = [0, 1, 2, 3]
        rel material:binding = </World/LightMat>
        normal3f[] normals = [(0, -1, 0), (0, -1, 0), (0, -1, 0), (0, -1, 0)]
        point3f[] points = [(-0.25, 0.999, 0.85), (0.25, 0.999, 0.85), (0.25, 0.999, 1.15), (-0.25, 0.999, 1.15)]
        uniform token subdivisionScheme = "none"
    }

    def Mesh "TallBlock" (
        prepend apiSchemas = ["MaterialBindingAPI"]
    )
    {
        int[] faceVertexCounts = [4, 4, 4, 4, 4, 4]
        int[] faceVertexIndices = [0, 1, 2, 3, 7, 6, 5, 4, 0, 4, 5, 1, 1, 5, 6, 2, 2, 6, 7, 3, 3, 7, 4, 0]
        rel material:binding = </World/WhiteMat>
        point3f[] points = [(0.181, -1, 0.488), (0.712, -1, 0.631), (0.569, -1, 1.162), (0.038, -1, 1.019), (0.181, 0, 0.488), (0.712, 0, 0.631), (0.569, 0, 1.162), (0.038, 0, 1.019)]
        uniform token subdivisionScheme = "none"
    }

    def Mesh "GlassSphere" (
        prepend apiSchemas = ["MaterialBindingAPI"]
    )
    {
        int[] faceVertexCounts = [3, 3, 3, 3, 3, 3, 3, 3, 3, 3, 3, 3, 3, 3, 3, 3, 3, 3, 3, 3, 3, 3, 3, 3, 3, 3, 3, 3, 3, 3, 3, 3, 4, 4, 4, 4, 4, 4, 4, 4, 4, 4, 4, 4, 4, 4, 4, 4, 4, 4, 4, 4, 4, 4, 4, 4, 4, 4, 4, 4, 4, 4, 4, 4, 4, 4, 4, 4, 4, 4, 4, 4, 4, 4, 4, 4, 4, 4, 4, 4, 4, 4, 4, 4, 4, 4, 4, 4, 4, 4, 4, 4, 4, 4, 4, 4, 4, 4, 4, 4, 4, 4, 4, 4, 4, 4, 4, 4, 4, 4, 4, 4, 4, 4, 4, 4, 4, 4, 4, 4, 4, 4, 4, 4, 4, 4, 4, 4, 4, 4, 4, 4, 4, 4, 4, 4, 4, 4, 4, 4, 4, 4, 4, 4, 4, 4, 4, 4, 4, 4, 4, 4, 4, 4, 4, 4, 4, 4, 4, 4, 4, 4, 4, 4, 4, 4, 4, 4, 4, 4, 4, 4, 4, 4, 4, 4, 4, 4, 4, 4, 4, 4, 4, 4, 4, 4, 4, 4, 4, 4, 4, 4, 4, 4, 4, 4, 4, 4, 4, 4, 4, 4, 4, 4, 4, 4, 4, 4, 4, 4, 4, 4, 4, 4, 4, 4, 4, 4, 4, 4, 4, 4, 4, 4, 4, 4, 4, 4, 4, 4, 4, 4, 4, 4, 4, 4, 4, 4, 4, 4, 4, 4, 4, 4, 4, 4, 4, 4, 4, 4, 4, 4, 4, 4, 4, 4, 4, 4, 4, 4, 4, 4, 4, 4, 4, 4, 4, 4, 4, 4, 4, 4, 4, 4, 4, 4, 4, 4, 4, 4, 4, 4, 4, 4, 4, 4, 4, 4, 4, 4, 4, 4, 4, 4, 4, 4, 4, 4, 4, 4, 4, 4, 4, 4, 4, 4, 4, 4, 4, 4, 4, 4, 4, 4, 4, 4, 4, 4, 4, 4, 4, 4, 4, 4, 4, 4, 4, 4, 4, 4, 4, 4, 4, 4, 4, 4, 4, 4, 4, 4, 4, 4, 4, 4, 4, 4, 4, 4, 4, 4, 4, 4, 4, 4, 4, 4, 4, 4, 4, 4, 4, 4, 4, 4, 4, 4, 4, 4, 4, 4, 4, 4, 4, 4, 4, 4, 4, 4, 4, 4, 4, 4, 4, 4, 4, 4, 4, 4, 4, 4, 4, 4, 4, 4, 4, 4, 4, 4, 4, 4, 4, 4, 4, 4, 4, 4, 4, 4, 4, 4, 4, 4, 4, 4, 4, 4, 4, 4, 4, 4, 4, 4, 4, 4, 4, 4, 4, 4, 4, 4, 4, 4, 4, 4, 4, 4, 4, 4, 4, 4, 4, 4, 4, 4, 4, 4, 4, 4, 4, 4, 4, 4, 4, 4, 4, 4, 4, 4, 4, 4, 4, 4, 4, 4, 4, 4, 4, 4, 4, 4, 4, 4, 4, 4, 4, 4, 4, 4, 4, 4, 3, 3, 3, 3, 3, 3, 3, 3, 3, 3, 3, 3, 3, 3, 3, 3, 3, 3, 3, 3, 3, 3, 3, 3, 3, 3, 3, 3, 3, 3, 3, 3]
        int[] faceVertexIndices = [0, 33, 32, 1, 34, 33, 2, 35, 34, 3, 36, 35, 4, 37, 36, 5, 38, 37, 6, 39, 38, 7, 40, 39, 8, 41, 40, 9, 42, 41, 10, 43, 42, 11, 44, 43, 12, 45, 44, 13, 46, 45, 14, 47, 46, 15, 48, 47, 16, 49, 48, 17, 50, 49, 18, 51, 50, 19, 52, 51, 20, 53, 52, 21, 54, 53, 22, 55, 54, 23, 56, 55, 24, 57, 56, 25, 58, 57, 26, 59, 58, 27, 60, 59, 28, 61, 60, 29, 62, 61, 30, 63, 62, 31, 32, 63, 32, 33, 65, 64, 33, 34, 66, 65, 34, 35, 67, 66, 35, 36, 68, 67, 36, 37, 69, 68, 37, 38, 70, 69, 38, 39, 71, 70, 39, 40, 72, 71, 40, 41, 73, 72, 41, 42, 74, 73, 42, 43, 75, 74, 43, 44, 76, 75, 44, 45, 77, 76, 45, 46, 78, 77, 46, 47, 79, 78, 47, 48, 80, 79, 48, 49, 81, 80, 49, 50, 82, 81, 50, 51, 83, 82, 51, 52, 84, 83, 52, 53, 85, 84, 53, 54, 86, 85, 54, 55, 87, 86, 55, 56, 88, 87, 56, 57, 89, 88, 57, 58, 90, 89, 58, 59, 91, 90, 59, 60, 92, 91, 60, 61, 93, 92, 61, 62, 94, 93, 62, 63, 95, 94, 63, 32, 64, 95, 64, 65, 97, 96, 65, 66, 98, 97, 66, 67, 99, 98, 67, 68, 100, 99, 68, 69, 101, 100, 69, 70, 102, 101, 70, 71, 103, 102, 71, 72, 104, 103, 72, 73, 105, 104, 73, 74, 106, 105, 74, 75, 107, 106, 75, 76, 108, 107, 76, 77, 109, 108, 77, 78, 110, 109, 78, 79, 111, 110, 79, 80, 112, 111, 80, 81, 113, 112, 81, 82, 114, 113, 82, 83, 115, 114, 83, 84, 116, 115, 84, 85, 117, 116, 85, 86, 118, 117, 86, 87, 119, 118, 87, 88, 120, 119, 88, 89, 121, 120, 89, 90, 122, 121, 90, 91, 123, 122, 91, 92, 124, 123, 92, 93, 125, 124, 93, 94, 126, 125, 94, 95, 127, 126, 95, 64, 96, 127, 96, 97, 129, 128, 97, 98, 130, 129, 98, 99, 131, 130, 99, 100, 132, 131, 100, 101, 133, 132, 101, 102, 134, 133, 102, 103, 135, 134, 103, 104, 136, 135, 104, 105, 137, 136, 105, 106, 138, 137, 106, 107, 139, 138, 107, 108, 140, 139, 108, 109, 141, 140, 109, 110, 142, 141, 110, 111, 143, 142, 111, 112, 144, 143, 112, 113, 145, 144, 113, 114, 146, 145, 114, 115, 147, 146, 115, 116, 148, 147, 116, 117, 149, 148, 117, 118, 150, 149, 118, 119, 151, 150, 119, 120, 152, 151, 120, 121, 153, 152, 121, 122, 154, 153, 122, 123, 155, 154, 123, 124, 156, 155, 124, 125, 157, 156, 125, 126, 158, 157, 126, 127, 159, 158, 127, 96, 128, 159, 128, 129, 161, 160, 129, 130, 162, 161, 130, 131, 163, 162, 131, 132, 164, 163, 132, 133, 165, 164, 133, 134, 166, 165, 134, 135, 167, 166, 135, 136, 168, 167, 136, 137, 169, 168, 137, 138, 170, 169, 138, 139, 171, 170, 139, 140, 172, 171, 140, 141, 173, 172, 141, 142, 174, 173, 142, 143, 175, 174, 143, 144, 176, 175, 144, 145, 177, 176, 145, 146, 178, 177, 146, 147, 179, 178, 147, 148, 180, 179, 148, 149, 181, 180, 149, 150, 182, 181, 150, 151, 183, 182, 151, 152, 184, 183, 152, 153, 185, 184, 153, 154, 186, 185, 154, 155, 187, 186, 155, 156, 188, 187, 156, 157, 189, 188, 157, 158, 190, 189, 158, 159, 191, 190, 159, 128, 160, 191, 160, 161, 193, 192, 161, 162, 194, 193, 162, 163, 195, 194, 163, 164, 196, 195, 164, 165, 197, 196, 165, 166, 198, 197, 166, 167, 199, 198, 167, 168, 200, 199, 168, 169, 201, 200, 169, 170, 202, 201, 170, 171, 203, 202, 171, 172, 204, 203, 172, 173, 205, 204, 173, 174, 206, 205, 174, 175, 207, 206, 175, 176, 208, 207, 176, 177, 209, 208, 177, 178, 210, 209, 178, 179, 211, 210, 179, 180, 212, 211, 180, 181, 213, 212, 181, 182, 214, 213, 182, 183, 215, 214, 183, 184, 216, 215, 184, 185, 217, 216, 185, 186, 218, 217, 186, 187, 219, 218, 187, 188, 220, 219, 188, 189, 221, 220, 189, 190, 222, 221, 190, 191, 223, 222, 191, 160, 192, 223, 192, 193, 225, 224, 193, 194, 226, 225, 194, 195, 227, 226, 195, 196, 228, 227, 196, 197, 229, 228, 197, 198, 230, 229, 198, 199, 231, 230, 199, 200, 232, 231, 200, 201, 233, 232, 201, 202, 234, 233, 202, 203, 235, 234, 203, 204, 236, 235, 204, 205, 237, 236, 205, 206, 238, 237, 206, 207, 239, 238, 207, 208, 240, 239, 208, 209, 241, 240, 209, 210, 242, 241, 210, 211, 243, 242, 211, 212, 244, 243, 212, 213, 245, 244, 213, 214, 246, 245, 214, 215, 247, 246, 215, 216, 248, 247, 216, 217, 249, 248, 217, 218, 250, 249, 218, 219, 251, 250, 219, 220, 252, 251, 220, 221, 253, 252, 221, 222, 254, 253, 222, 223, 255, 254, 223, 192, 224, 255, 224, 225, 257, 256, 225, 226, 258, 257, 226, 227, 259, 258, 227, 228, 260, 259, 228, 229, 261, 260, 229, 230, 262, 261, 230, 231, 263, 262, 231, 232, 264, 263, 232, 233, 265, 264, 233, 234, 266, 265, 234, 235, 267, 266, 235, 236, 268, 267, 236, 237, 269, 268, 237, 238, 270, 269, 238, 239, 271, 270, 239, 240, 272, 271, 240, 241, 273, 272, 241, 242, 274, 273, 242, 243, 275, 274, 243, 244, 276, 275, 244, 245, 277, 276, 245, 246, 278, 277, 246, 247, 279, 278, 247, 248, 280, 279, 248, 249, 281, 280, 249, 250, 282, 281, 250, 251, 283, 282, 251, 252, 284, 283, 252, 253, 285, 284, 253, 254, 286, 285, 254, 255, 287, 286, 255, 224, 256, 287, 256, 257, 289, 288, 257, 258, 290, 289, 258, 259, 291, 290, 259, 260, 292, 291, 260, 261, 293, 292, 261, 262, 294, 293, 262, 263, 295, 294, 263, 264, 296, 295, 264, 265, 297, 296, 265, 266, 298, 297, 266, 267, 299, 298, 267, 268, 300, 299, 268, 269, 301, 300, 269, 270, 302, 301, 270, 271, 303, 302, 271, 272, 304, 303, 272, 273, 305, 304, 273, 274, 306, 305, 274, 275, 307, 306, 275, 276, 308, 307, 276, 277, 309, 308, 277, 278, 310, 309, 278, 279, 311, 310, 279, 280, 312, 311, 280, 281, 313, 312, 281, 282, 314, 313, 282, 283, 315, 314, 283, 284, 316, 315, 284, 285, 317, 316, 285, 286, 318, 317, 286, 287, 319, 318, 287, 256, 288, 319, 288, 289, 321, 320, 289, 290, 322, 321, 290, 291, 323, 322, 291, 292, 324, 323, 292, 293, 325, 324, 293, 294, 326, 325, 294, 295, 327, 326, 295, 296, 328, 327, 296, 297, 329, 328, 297, 298, 330, 329, 298, 299, 331, 330, 299, 300, 332, 331, 300, 301, 333, 332, 301, 302, 334, 333, 302, 303, 335, 334, 303, 304, 336, 335, 304, 305, 337, 336, 305, 306, 338, 337, 306, 307, 339, 338, 307, 308, 340, 339, 308, 309, 341, 340, 309, 310, 342, 341, 310, 311, 343, 342, 311, 312, 344, 343, 312, 313, 345, 344, 313, 314, 346, 345, 314, 315, 347, 346, 315, 316, 348, 347, 316, 317, 349, 348, 317, 318, 350, 349, 318, 319, 351, 350, 319, 288, 320, 351, 320, 321, 353, 352, 321, 322, 354, 353, 322, 323, 355, 354, 323, 324, 356, 355, 324, 325, 357, 356, 325, 326, 358, 357, 326, 327, 359, 358, 327, 328, 360, 359, 328, 329, 361, 360, 329, 330, 362, 361, 330, 331, 363, 362, 331, 332, 364, 363, 332, 333, 365, 364, 333, 334, 366, 365, 334, 335, 367, 366, 335, 336, 368, 367, 336, 337, 369, 368, 337, 338, 370, 369, 338, 339, 371, 370, 339, 340, 372, 371, 340, 341, 373, 372, 341, 342, 374, 373, 342, 343, 375, 374, 343, 344, 376, 375, 344, 345, 377, 376, 345, 346, 378, 377, 346, 347, 379, 378, 347, 348, 380, 379, 348, 349, 381, 380, 349, 350, 382, 381, 350, 351, 383, 382, 351, 320, 352, 383, 352, 353, 385, 384, 353, 354, 386, 385, 354, 355, 387, 386, 355, 356, 388, 387, 356, 357, 389, 388, 357, 358, 390, 389, 358, 359, 391, 390, 359, 360, 392, 391, 360, 361, 393, 392, 361, 362, 394, 393, 362, 363, 395, 394, 363, 364, 396, 395, 364, 365, 397, 396, 365, 366, 398, 397, 366, 367, 399, 398, 367, 368, 400, 399, 368, 369, 401, 400, 369, 370, 402, 401, 370, 371, 403, 402, 371, 372, 404, 403, 372, 373, 405, 404, 373, 374, 406, 405, 374, 375, 407, 406, 375, 376, 408, 407, 376, 377, 409, 408, 377, 378, 410, 409, 378, 379, 411, 410, 379, 380, 412, 411, 380, 381, 413, 412, 381, 382, 414, 413, 382, 383, 415, 414, 383, 352, 384, 415, 384, 385, 417, 416, 385, 386, 418, 417, 386, 387, 419, 418, 387, 388, 420, 419, 388, 389, 421, 420, 389, 390, 422, 421, 390, 391, 423, 422, 391, 392, 424, 423, 392, 393, 425, 424, 393, 394, 426, 425, 394, 395, 427, 426, 395, 396, 428, 427, 396, 397, 429, 428, 397, 398, 430, 429, 398, 399, 431, 430, 399, 400, 432, 431, 400, 401, 433, 432, 401, 402, 434, 433, 402, 403, 435, 434, 403, 404, 436, 435, 404, 405, 437, 436, 405, 406, 438, 437, 406, 407, 439, 438, 407, 408, 440, 439, 408, 409, 441, 440, 409, 410, 442, 441, 410, 411, 443, 442, 411, 412, 444, 443, 412, 413, 445, 444, 413, 414, 446, 445, 414, 415, 447, 446, 415, 384, 416, 447, 416, 417, 449, 448, 417, 418, 450, 449, 418, 419, 451, 450, 419, 420, 452, 451, 420, 421, 453, 452, 421, 422, 454, 453, 422, 423, 455, 454, 423, 424, 456, 455, 424, 425, 457, 456, 425, 426, 458, 457, 426, 427, 459, 458, 427, 428, 460, 459, 428, 429, 461, 460, 429, 430, 462, 461, 430, 431, 463, 462, 431, 432, 464, 463, 432, 433, 465, 464, 433, 434, 466, 465, 434, 435, 467, 466, 435, 436, 468, 467, 436, 437, 469, 468, 437, 438, 470, 469, 438, 439, 471, 470, 439, 440, 472, 471, 440, 441, 473, 472, 441, 442, 474, 473, 442, 443, 475, 474, 443, 444, 476, 475, 444, 445, 477, 476, 445, 446, 478, 477, 446, 447, 479, 478, 447, 416, 448, 479, 448, 449, 481, 480, 449, 450, 482, 481, 450, 451, 483, 482, 451, 452, 484, 483, 452, 453, 485, 484, 453, 454, 486, 485, 454, 455, 487, 486, 455, 456, 488, 487, 456, 457, 489, 488, 457, 458, 490, 489, 458, 459, 491, 490, 459, 460, 492, 491, 460, 461, 493, 492, 461, 462, 494, 493, 462, 463, 495, 494, 463, 464, 496, 495, 464, 465, 497, 496, 465, 466, 498, 497, 466, 467, 499, 498, 467, 468, 500, 499, 468, 469, 501, 500, 469, 470, 502, 501, 470, 471, 503, 502, 471, 472, 504, 503, 472, 473, 505, 504, 473, 474, 506, 505, 474, 475, 507, 506, 475, 476, 508, 507, 476, 477, 509, 508, 477, 478, 510, 509, 478, 479, 511, 510, 479, 448, 480, 511, 480, 481, 513, 481, 482, 514, 482, 483, 515, 483, 484, 516, 484, 485, 517, 485, 486, 518, 486, 487, 519, 487, 488, 520, 488, 489, 521, 489, 490, 522, 490, 491, 523, 491, 492, 524, 492, 493, 525, 493, 494, 526, 494, 495, 527, 495, 496, 528, 496, 497, 529, 497, 498, 530, 498, 499, 531, 499, 500, 532, 500, 501, 533, 501, 502, 534, 502, 503, 535, 503, 504, 536, 504, 505, 537, 505, 506, 538, 506, 507, 539, 507, 508, 540, 508, 509, 541, 509, 510, 542, 510, 511, 543, 511, 480, 512]
        rel material:binding = </World/GlassMat>
        normal3f[] normals = [(0.0000, 1.0000, 0.0000), (0.0000, 1.0000, 0.0000), (0.0000, 1.0000, 0.0000), (0.0000, 1.0000, 0.0000), (0.0000, 1.0000, 0.0000), (0.0000, 1.0000, 0.0000), (0.0000, 1.0000, 0.0000), (0.0000, 1.0000, 0.0000), (0.0000, 1.0000, 0.0000), (-0.0000, 1.0000, 0.0000), (-0.0000, 1.0000, 0.0000), (-0.0000, 1.0000, 0.0000), (-0.0000, 1.0000, 0.0000), (-0.0000, 1.0000, 0.0000), (-0.0000, 1.0000, 0.0000), (-0.0000, 1.0000, 0.0000), (-0.0000, 1.0000, 0.0000), (-0.0000, 1.0000, -0.0000), (-0.0000, 1.0000, -0.0000), (-0.0000, 1.0000, -0.0000), (-0.0000, 1.0000, -0.0000), (-0.0000, 1.0000, -0.0000), (-0.0000, 1.0000, -0.0000), (-0.0000, 1.0000, -0.0000), (-0.0000, 1.0000, -0.0000), (0.0000, 1.0000, -0.0000), (0.0000, 1.0000, -0.0000), (0.0000, 1.0000, -0.0000), (0.0000, 1.0000, -0.0000), (0.0000, 1.0000, -0.0000), (0.0000, 1.0000, -0.0000), (0.0000, 1.0000, -0.0000), (0.1951, 0.9808, 0.0000), (0.1913, 0.9808, 0.0381), (0.1802, 0.9808, 0.0747), (0.1622, 0.9808, 0.1084), (0.1379, 0.9808, 0.1379), (0.1084, 0.9808, 0.1622), (0.0747, 0.9808, 0.1802), (0.0381, 0.9808, 0.1913), (0.0000, 0.9808, 0.1951), (-0.0381, 0.9808, 0.1913), (-0.0747, 0.9808, 0.1802), (-0.1084, 0.9808, 0.1622), (-0.1379, 0.9808, 0.1379), (-0.1622, 0.9808, 0.1084), (-0.1802, 0.9808, 0.0747), (-0.1913, 0.9808, 0.0381), (-0.1951, 0.9808, 0.0000), (-0.1913, 0.9808, -0.0381), (-0.1802, 0.9808, -0.0747), (-0.1622, 0.9808, -0.1084), (-0.1379, 0.9808, -0.1379), (-0.1084, 0.9808, -0.1622), (-0.0747, 0.9808, -0.1802), (-0.0381, 0.9808, -0.1913), (-0.0000, 0.9808, -0.1951), (0.0381, 0.9808, -0.1913), (0.0747, 0.9808, -0.1802), (0.1084, 0.9808, -0.1622), (0.1379, 0.9808, -0.1379), (0.1622, 0.9808, -0.1084), (0.1802, 0.9808, -0.0747), (0.1913, 0.9808, -0.0381), (0.3827, 0.9239, 0.0000), (0.3753, 0.9239, 0.0747), (0.3536, 0.9239, 0.1464), (0.3182, 0.9239, 0.2126), (0.2706, 0.9239, 0.2706), (0.2126, 0.9239, 0.3182), (0.1464, 0.9239, 0.3536), (0.0747, 0.9239, 0.3753), (0.0000, 0.9239, 0.3827), (-0.0747, 0.9239, 0.3753), (-0.1464, 0.9239, 0.3536), (-0.2126, 0.9239, 0.3182), (-0.2706, 0.9239, 0.2706), (-0.3182, 0.9239, 0.2126), (-0.3536, 0.9239, 0.1464), (-0.3753, 0.9239, 0.0747), (-0.3827, 0.9239, 0.0000), (-0.3753, 0.9239, -0.0747), (-0.3536, 0.9239, -0.1464), (-0.3182, 0.9239, -0.2126), (-0.2706, 0.9239, -0.2706), (-0.2126, 0.9239, -0.3182), (-0.1464, 0.9239, -0.3536), (-0.0747, 0.9239, -0.3753), (-0.0000, 0.9239, -0.3827), (0.0747, 0.9239, -0.3753), (0.1464, 0.9239, -0.3536), (0.2126, 0.9239, -0.3182), (0.2706, 0.9239, -0.2706), (0.3182, 0.9239, -0.2126), (0.3536, 0.9239, -0.1464), (0.3753, 0.9239, -0.0747), (0.5556, 0.8315, 0.0000), (0.5449, 0.8315, 0.1084), (0.5133, 0.8315, 0.2126), (0.4619, 0.8315, 0.3087), (0.3928, 0.8315, 0.3928), (0.3087, 0.8315, 0.4619), (0.2126, 0.8315, 0.5133), (0.1084, 0.8315, 0.5449), (0.0000, 0.8315, 0.5556), (-0.1084, 0.8315, 0.5449), (-0.2126, 0.8315, 0.5133), (-0.3087, 0.8315, 0.4619), (-0.3928, 0.8315, 0.3928), (-0.4619, 0.8315, 0.3087), (-0.5133, 0.8315, 0.2126), (-0.5449, 0.8315, 0.1084), (-0.5556, 0.8315, 0.0000), (-0.5449, 0.8315, -0.1084), (-0.5133, 0.8315, -0.2126), (-0.4619, 0.8315, -0.3087), (-0.3928, 0.8315, -0.3928), (-0.3087, 0.8315, -0.4619), (-0.2126, 0.8315, -0.5133), (-0.1084, 0.8315, -0.5449), (-0.0000, 0.8315, -0.5556), (0.1084, 0.8315, -0.5449), (0.2126, 0.8315, -0.5133), (0.3087, 0.8315, -0.4619), (0.3928, 0.8315, -0.3928), (0.4619, 0.8315, -0.3087), (0.5133, 0.8315, -0.2126), (0.5449, 0.8315, -0.1084), (0.7071, 0.7071, 0.0000), (0.6935, 0.7071, 0.1379), (0.6533, 0.7071, 0.2706), (0.5879, 0.7071, 0.3928), (0.5000, 0.7071, 0.5000), (0.3928, 0.7071, 0.5879), (0.2706, 0.7071, 0.6533), (0.1379, 0.7071, 0.6935), (0.0000, 0.7071, 0.7071), (-0.1379, 0.7071, 0.6935), (-0.2706, 0.7071, 0.6533), (-0.3928, 0.7071, 0.5879), (-0.5000, 0.7071, 0.5000), (-0.5879, 0.7071, 0.3928), (-0.6533, 0.7071, 0.2706), (-0.6935, 0.7071, 0.1379), (-0.7071, 0.7071, 0.0000), (-0.6935, 0.7071, -0.1379), (-0.6533, 0.7071, -0.2706), (-0.5879, 0.7071, -0.3928), (-0.5000, 0.7071, -0.5000), (-0.3928, 0.7071, -0.5879), (-0.2706, 0.7071, -0.6533), (-0.1379, 0.7071, -0.6935), (-0.0000, 0.7071, -0.7071), (0.1379, 0.7071, -0.6935), (0.2706, 0.7071, -0.6533), (0.3928, 0.7071, -0.5879), (0.5000, 0.7071, -0.5000), (0.5879, 0.7071, -0.3928), (0.6533, 0.7071, -0.2706), (0.6935, 0.7071, -0.1379), (0.8315, 0.5556, 0.0000), (0.8155, 0.5556, 0.1622), (0.7682, 0.5556, 0.3182), (0.6913, 0.5556, 0.4619), (0.5879, 0.5556, 0.5879), (0.4619, 0.5556, 0.6913), (0.3182, 0.5556, 0.7682), (0.1622, 0.5556, 0.8155), (0.0000, 0.5556, 0.8315), (-0.1622, 0.5556, 0.8155), (-0.3182, 0.5556, 0.7682), (-0.4619, 0.5556, 0.6913), (-0.5879, 0.5556, 0.5879), (-0.6913, 0.5556, 0.4619), (-0.7682, 0.5556, 0.3182), (-0.8155, 0.5556, 0.1622), (-0.8315, 0.5556, 0.0000), (-0.8155, 0.5556, -0.1622), (-0.7682, 0.5556, -0.3182), (-0.6913, 0.5556, -0.4619), (-0.5879, 0.5556, -0.5879), (-0.4619, 0.5556, -0.6913), (-0.3182, 0.5556, -0.7682), (-0.1622, 0.5556, -0.8155), (-0.0000, 0.5556, -0.8315), (0.1622, 0.5556, -0.8155), (0.3182, 0.5556, -0.7682), (0.4619, 0.5556, -0.6913), (0.5879, 0.5556, -0.5879), (0.6913, 0.5556, -0.4619), (0.7682, 0.5556, -0.3182), (0.8155, 0.5556, -0.1622), (0.9239, 0.3827, 0.0000), (0.9061, 0.3827, 0.1802), (0.8536, 0.3827, 0.3536), (0.7682, 0.3827, 0.5133), (0.6533, 0.3827, 0.6533), (0.5133, 0.3827, 0.7682), (0.3536, 0.3827, 0.8536), (0.1802, 0.3827, 0.9061), (0.0000, 0.3827, 0.9239), (-0.1802, 0.3827, 0.9061), (-0.3536, 0.3827, 0.8536), (-0.5133, 0.3827, 0.7682), (-0.6533, 0.3827, 0.6533), (-0.7682, 0.3827, 0.5133), (-0.8536, 0.3827, 0.3536), (-0.9061, 0.3827, 0.1802), (-0.9239, 0.3827, 0.0000), (-0.9061, 0.3827, -0.1802), (-0.8536, 0.3827, -0.3536), (-0.7682, 0.3827, -0.5133), (-0.6533, 0.3827, -0.6533), (-0.5133, 0.3827, -0.7682), (-0.3536, 0.3827, -0.8536), (-0.1802, 0.3827, -0.9061), (-0.0000, 0.3827, -0.9239), (0.1802, 0.3827, -0.9061), (0.3536, 0.3827, -0.8536), (0.5133, 0.3827, -0.7682), (0.6533, 0.3827, -0.6533), (0.7682, 0.3827, -0.5133), (0.8536, 0.3827, -0.3536), (0.9061, 0.3827, -0.1802), (0.9808, 0.1951, 0.0000), (0.9619, 0.1951, 0.1913), (0.9061, 0.1951, 0.3753), (0.8155, 0.1951, 0.5449), (0.6935, 0.1951, 0.6935), (0.5449, 0.1951, 0.8155), (0.3753, 0.1951, 0.9061), (0.1913, 0.1951, 0.9619), (0.0000, 0.1951, 0.9808), (-0.1913, 0.1951, 0.9619), (-0.3753, 0.1951, 0.9061), (-0.5449, 0.1951, 0.8155), (-0.6935, 0.1951, 0.6935), (-0.8155, 0.1951, 0.5449), (-0.9061, 0.1951, 0.3753), (-0.9619, 0.1951, 0.1913), (-0.9808, 0.1951, 0.0000), (-0.9619, 0.1951, -0.1913), (-0.9061, 0.1951, -0.3753), (-0.8155, 0.1951, -0.5449), (-0.6935, 0.1951, -0.6935), (-0.5449, 0.1951, -0.8155), (-0.3753, 0.1951, -0.9061), (-0.1913, 0.1951, -0.9619), (-0.0000, 0.1951, -0.9808), (0.1913, 0.1951, -0.9619), (0.3753, 0.1951, -0.9061), (0.5449, 0.1951, -0.8155), (0.6935, 0.1951, -0.6935), (0.8155, 0.1951, -0.5449), (0.9061, 0.1951, -0.3753), (0.9619, 0.1951, -0.1913), (1.0000, 0.0000, 0.0000), (0.9808, 0.0000, 0.1951), (0.9239, 0.0000, 0.3827), (0.8315, 0.0000, 0.5556), (0.7071, 0.0000, 0.7071), (0.5556, 0.0000, 0.8315), (0.3827, 0.0000, 0.9239), (0.1951, 0.0000, 0.9808), (0.0000, 0.0000, 1.0000), (-0.1951, 0.0000, 0.9808), (-0.3827, 0.0000, 0.9239), (-0.5556, 0.0000, 0.8315), (-0.7071, 0.0000, 0.7071), (-0.8315, 0.0000, 0.5556), (-0.9239, 0.0000, 0.3827), (-0.9808, 0.0000, 0.1951), (-1.0000, 0.0000, 0.0000), (-0.9808, 0.0000, -0.1951), (-0.9239, 0.0000, -0.3827), (-0.8315, 0.0000, -0.5556), (-0.7071, 0.0000, -0.7071), (-0.5556, 0.0000, -0.8315), (-0.3827, 0.0000, -0.9239), (-0.1951, 0.0000, -0.9808), (-0.0000, 0.0000, -1.0000), (0.1951, 0.0000, -0.9808), (0.3827, 0.0000, -0.9239), (0.5556, 0.0000, -0.8315), (0.7071, 0.0000, -0.7071), (0.8315, 0.0000, -0.5556), (0.9239, 0.0000, -0.3827), (0.9808, 0.0000, -0.1951), (0.9808, -0.1951, 0.0000), (0.9619, -0.1951, 0.1913), (0.9061, -0.1951, 0.3753), (0.8155, -0.1951, 0.5449), (0.6935, -0.1951, 0.6935), (0.5449, -0.1951, 0.8155), (0.3753, -0.1951, 0.9061), (0.1913, -0.1951, 0.9619), (0.0000, -0.1951, 0.9808), (-0.1913, -0.1951, 0.9619), (-0.3753, -0.1951, 0.9061), (-0.5449, -0.1951, 0.8155), (-0.6935, -0.1951, 0.6935), (-0.8155, -0.1951, 0.5449), (-0.9061, -0.1951, 0.3753), (-0.9619, -0.1951, 0.1913), (-0.9808, -0.1951, 0.0000), (-0.9619, -0.1951, -0.1913), (-0.9061, -0.1951, -0.3753), (-0.8155, -0.1951, -0.5449), (-0.6935, -0.1951, -0.6935), (-0.5449, -0.1951, -0.8155), (-0.3753, -0.1951, -0.9061), (-0.1913, -0.1951, -0.9619), (-0.0000, -0.1951, -0.9808), (0.1913, -0.1951, -0.9619), (0.3753, -0.1951, -0.9061), (0.5449, -0.1951, -0.8155), (0.6935, -0.1951, -0.6935), (0.8155, -0.1951, -0.5449), (0.9061, -0.1951, -0.3753), (0.9619, -0.1951, -0.1913), (0.9239, -0.3827, 0.0000), (0.9061, -0.3827, 0.1802), (0.8536, -0.3827, 0.3536), (0.7682, -0.3827, 0.5133), (0.6533, -0.3827, 0.6533), (0.5133, -0.3827, 0.7682), (0.3536, -0.3827, 0.8536), (0.1802, -0.3827, 0.9061), (0.0000, -0.3827, 0.9239), (-0.1802, -0.3827, 0.9061), (-0.3536, -0.3827, 0.8536), (-0.5133, -0.3827, 0.7682), (-0.6533, -0.3827, 0.6533), (-0.7682, -0.3827, 0.5133), (-0.8536, -0.3827, 0.3536), (-0.9061, -0.3827, 0.1802), (-0.9239, -0.3827, 0.0000), (-0.9061, -0.3827, -0.1802), (-0.8536, -0.3827, -0.3536), (-0.7682, -0.3827, -0.5133), (-0.6533, -0.3827, -0.6533), (-0.5133, -0.3827, -0.7682), (-0.3536, -0.3827, -0.8536), (-0.1802, -0.3827, -0.9061), (-0.0000, -0.3827, -0.9239), (0.1802, -0.3827, -0.9061), (0.3536, -0.3827, -0.8536), (0.5133, -0.3827, -0.7682), (0.6533, -0.3827, -0.6533), (0.7682, -0.3827, -0.5133), (0.8536, -0.3827, -0.3536), (0.9061, -0.3827, -0.1802), (0.8315, -0.5556, 0.0000), (0.8155, -0.5556, 0.1622), (0.7682, -0.5556, 0.3182), (0.6913, -0.5556, 0.4619), (0.5879, -0.5556, 0.5879), (0.4619, -0.5556, 0.6913), (0.3182, -0.5556, 0.7682), (0.1622, -0.5556, 0.8155), (0.0000, -0.5556, 0.8315), (-0.1622, -0.5556, 0.8155), (-0.3182, -0.5556, 0.7682), (-0.4619, -0.5556, 0.6913), (-0.5879, -0.5556, 0.5879), (-0.6913, -0.5556, 0.4619), (-0.7682, -0.5556, 0.3182), (-0.8155, -0.5556, 0.1622), (-0.8315, -0.5556, 0.0000), (-0.8155, -0.5556, -0.1622), (-0.7682, -0.5556, -0.3182), (-0.6913, -0.5556, -0.4619), (-0.5879, -0.5556, -0.5879), (-0.4619, -0.5556, -0.6913), (-0.3182, -0.5556, -0.7682), (-0.1622, -0.5556, -0.8155), (-0.0000, -0.5556, -0.8315), (0.1622, -0.5556, -0.8155), (0.3182, -0.5556, -0.7682), (0.4619, -0.5556, -0.6913), (0.5879, -0.5556, -0.5879), (0.6913, -0.5556, -0.4619), (0.7682, -0.5556, -0.3182), (0.8155, -0.5556, -0.1622), (0.7071, -0.7071, 0.0000), (0.6935, -0.7071, 0.1379), (0.6533, -0.7071, 0.2706), (0.5879, -0.7071, 0.3928), (0.5000, -0.7071, 0.5000), (0.3928, -0.7071, 0.5879), (0.2706, -0.7071, 0.6533), (0.1379, -0.7071, 0.6935), (0.0000, -0.7071, 0.7071), (-0.1379, -0.7071, 0.6935), (-0.2706, -0.7071, 0.6533), (-0.3928, -0.7071, 0.5879), (-0.5000, -0.7071, 0.5000), (-0.5879, -0.7071, 0.3928), (-0.6533, -0.7071, 0.2706), (-0.6935, -0.7071, 0.1379), (-0.7071, -0.7071, 0.0000), (-0.6935, -0.7071, -0.1379), (-0.6533, -0.7071, -0.2706), (-0.5879, -0.7071, -0.3928), (-0.5000, -0.7071, -0.5000), (-0.3928, -0.7071, -0.5879), (-0.2706, -0.7071, -0.6533), (-0.1379, -0.7071, -0.6935), (-0.0000, -0.7071, -0.7071), (0.1379, -0.7071, -0.6935), (0.2706, -0.7071, -0.6533), (0.3928, -0.7071, -0.5879), (0.5000, -0.7071, -0.5000), (0.5879, -0.7071, -0.3928), (0.6533, -0.7071, -0.2706), (0.6935, -0.7071, -0.1379), (0.5556, -0.8315, 0.0000), (0.5449, -0.8315, 0.1084), (0.5133, -0.8315, 0.2126), (0.4619, -0.8315, 0.3087), (0.3928, -0.8315, 0.3928), (0.3087, -0.8315, 0.4619), (0.2126, -0.8315, 0.5133), (0.1084, -0.8315, 0.5449), (0.0000, -0.8315, 0.5556), (-0.1084, -0.8315, 0.5449), (-0.2126, -0.8315, 0.5133), (-0.3087, -0.8315, 0.4619), (-0.3928, -0.8315, 0.3928), (-0.4619, -0.8315, 0.3087), (-0.5133, -0.8315, 0.2126), (-0.5449, -0.8315, 0.1084), (-0.5556, -0.8315, 0.0000), (-0.5449, -0.8315, -0.1084), (-0.5133, -0.8315, -0.2126), (-0.4619, -0.8315, -0.3087), (-0.3928, -0.8315, -0.3928), (-0.3087, -0.8315, -0.4619), (-0.2126, -0.8315, -0.5133), (-0.1084, -0.8315, -0.5449), (-0.0000, -0.8315, -0.5556), (0.1084, -0.8315, -0.5449), (0.2126, -0.8315, -0.5133), (0.3087, -0.8315, -0.4619), (0.3928, -0.8315, -0.3928), (0.4619, -0.8315, -0.3087), (0.5133, -0.8315, -0.2126), (0.5449, -0.8315, -0.1084), (0.3827, -0.9239, 0.0000), (0.3753, -0.9239, 0.0747), (0.3536, -0.9239, 0.1464), (0.3182, -0.9239, 0.2126), (0.2706, -0.9239, 0.2706), (0.2126, -0.9239, 0.3182), (0.1464, -0.9239, 0.3536), (0.0747, -0.9239, 0.3753), (0.0000, -0.9239, 0.3827), (-0.0747, -0.9239, 0.3753), (-0.1464, -0.9239, 0.3536), (-0.2126, -0.9239, 0.3182), (-0.2706, -0.9239, 0.2706), (-0.3182, -0.9239, 0.2126), (-0.3536, -0.9239, 0.1464), (-0.3753, -0.9239, 0.0747), (-0.3827, -0.9239, 0.0000), (-0.3753, -0.9239, -0.0747), (-0.3536, -0.9239, -0.1464), (-0.3182, -0.9239, -0.2126), (-0.2706, -0.9239, -0.2706), (-0.2126, -0.9239, -0.3182), (-0.1464, -0.9239, -0.3536), (-0.0747, -0.9239, -0.3753), (-0.0000, -0.9239, -0.3827), (0.0747, -0.9239, -0.3753), (0.1464, -0.9239, -0.3536), (0.2126, -0.9239, -0.3182), (0.2706, -0.9239, -0.2706), (0.3182, -0.9239, -0.2126), (0.3536, -0.9239, -0.1464), (0.3753, -0.9239, -0.0747), (0.1951, -0.9808, 0.0000), (0.1913, -0.9808, 0.0381), (0.1802, -0.9808, 0.0747), (0.1622, -0.9808, 0.1084), (0.1379, -0.9808, 0.1379), (0.1084, -0.9808, 0.1622), (0.0747, -0.9808, 0.1802), (0.0381, -0.9808, 0.1913), (0.0000, -0.9808, 0.1951), (-0.0381, -0.9808, 0.1913), (-0.0747, -0.9808, 0.1802), (-0.1084, -0.9808, 0.1622), (-0.1379, -0.9808, 0.1379), (-0.1622, -0.9808, 0.1084), (-0.1802, -0.9808, 0.0747), (-0.1913, -0.9808, 0.0381), (-0.1951, -0.9808, 0.0000), (-0.1913, -0.9808, -0.0381), (-0.1802, -0.9808, -0.0747), (-0.1622, -0.9808, -0.1084), (-0.1379, -0.9808, -0.1379), (-0.1084, -0.9808, -0.1622), (-0.0747, -0.9808, -0.1802), (-0.0381, -0.9808, -0.1913), (-0.0000, -0.9808, -0.1951), (0.0381, -0.9808, -0.1913), (0.0747, -0.9808, -0.1802), (0.1084, -0.9808, -0.1622), (0.1379, -0.9808, -0.1379), (0.1622, -0.9808, -0.1084), (0.1802, -0.9808, -0.0747), (0.1913, -0.9808, -0.0381), (0.0000, -1.0000, 0.0000), (0.0000, -1.0000, 0.0000), (0.0000, -1.0000, 0.0000), (0.0000, -1.0000, 0.0000), (0.0000, -1.0000, 0.0000), (0.0000, -1.0000, 0.0000), (0.0000, -1.0000, 0.0000), (0.0000, -1.0000, 0.0000), (0.0000, -1.0000, 0.0000), (-0.0000, -1.0000, 0.0000), (-0.0000, -1.0000, 0.0000), (-0.0000, -1.0000, 0.0000), (-0.0000, -1.0000, 0.0000), (-0.0000, -1.0000, 0.0000), (-0.0000, -1.0000, 0.0000), (-0.0000, -1.0000, 0.0000), (-0.0000, -1.0000, 0.0000), (-0.0000, -1.0000, -0.0000), (-0.0000, -1.0000, -0.0000), (-0.0000, -1.0000, -0.0000), (-0.0000, -1.0000, -0.0000), (-0.0000, -1.0000, -0.0000), (-0.0000, -1.0000, -0.0000), (-0.0000, -1.0000, -0.0000), (-0.0000, -1.0000, -0.0000), (0.0000, -1.0000, -0.0000), (0.0000, -1.0000, -0.0000), (0.0000, -1.0000, -0.0000), (0.0000, -1.0000, -0.0000), (0.0000, -1.0000, -0.0000), (0.0000, -1.0000, -0.0000), (0.0000, -1.0000, -0.0000)]
        uniform token normsInterpolation = "vertex"
        point3f[] points = [(-0.3750, -0.4600, 1.1600), (-0.3750, -0.4600, 1.1600), (-0.3750, -0.4600, 1.1600), (-0.3750, -0.4600, 1.1600), (-0.3750, -0.4600, 1.1600), (-0.3750, -0.4600, 1.1600), (-0.3750, -0.4600, 1.1600), (-0.3750, -0.4600, 1.1600), (-0.3750, -0.4600, 1.1600), (-0.3750, -0.4600, 1.1600), (-0.3750, -0.4600, 1.1600), (-0.3750, -0.4600, 1.1600), (-0.3750, -0.4600, 1.1600), (-0.3750, -0.4600, 1.1600), (-0.3750, -0.4600, 1.1600), (-0.3750, -0.4600, 1.1600), (-0.3750, -0.4600, 1.1600), (-0.3750, -0.4600, 1.1600), (-0.3750, -0.4600, 1.1600), (-0.3750, -0.4600, 1.1600), (-0.3750, -0.4600, 1.1600), (-0.3750, -0.4600, 1.1600), (-0.3750, -0.4600, 1.1600), (-0.3750, -0.4600, 1.1600), (-0.3750, -0.4600, 1.1600), (-0.3750, -0.4600, 1.1600), (-0.3750, -0.4600, 1.1600), (-0.3750, -0.4600, 1.1600), (-0.3750, -0.4600, 1.1600), (-0.3750, -0.4600, 1.1600), (-0.3750, -0.4600, 1.1600), (-0.3750, -0.4600, 1.1600), (-0.3223, -0.4652, 1.1600), (-0.3233, -0.4652, 1.1703), (-0.3263, -0.4652, 1.1802), (-0.3312, -0.4652, 1.1893), (-0.3378, -0.4652, 1.1972), (-0.3457, -0.4652, 1.2038), (-0.3548, -0.4652, 1.2087), (-0.3647, -0.4652, 1.2117), (-0.3750, -0.4652, 1.2127), (-0.3853, -0.4652, 1.2117), (-0.3952, -0.4652, 1.2087), (-0.4043, -0.4652, 1.2038), (-0.4122, -0.4652, 1.1972), (-0.4188, -0.4652, 1.1893), (-0.4237, -0.4652, 1.1802), (-0.4267, -0.4652, 1.1703), (-0.4277, -0.4652, 1.1600), (-0.4267, -0.4652, 1.1497), (-0.4237, -0.4652, 1.1398), (-0.4188, -0.4652, 1.1307), (-0.4122, -0.4652, 1.1228), (-0.4043, -0.4652, 1.1162), (-0.3952, -0.4652, 1.1113), (-0.3853, -0.4652, 1.1083), (-0.3750, -0.4652, 1.1073), (-0.3647, -0.4652, 1.1083), (-0.3548, -0.4652, 1.1113), (-0.3457, -0.4652, 1.1162), (-0.3378, -0.4652, 1.1228), (-0.3312, -0.4652, 1.1307), (-0.3263, -0.4652, 1.1398), (-0.3233, -0.4652, 1.1497), (-0.2717, -0.4806, 1.1600), (-0.2737, -0.4806, 1.1802), (-0.2795, -0.4806, 1.1995), (-0.2891, -0.4806, 1.2174), (-0.3019, -0.4806, 1.2331), (-0.3176, -0.4806, 1.2459), (-0.3355, -0.4806, 1.2555), (-0.3548, -0.4806, 1.2613), (-0.3750, -0.4806, 1.2633), (-0.3952, -0.4806, 1.2613), (-0.4145, -0.4806, 1.2555), (-0.4324, -0.4806, 1.2459), (-0.4481, -0.4806, 1.2331), (-0.4609, -0.4806, 1.2174), (-0.4705, -0.4806, 1.1995), (-0.4763, -0.4806, 1.1802), (-0.4783, -0.4806, 1.1600), (-0.4763, -0.4806, 1.1398), (-0.4705, -0.4806, 1.1205), (-0.4609, -0.4806, 1.1026), (-0.4481, -0.4806, 1.0869), (-0.4324, -0.4806, 1.0741), (-0.4145, -0.4806, 1.0645), (-0.3952, -0.4806, 1.0587), (-0.3750, -0.4806, 1.0567), (-0.3548, -0.4806, 1.0587), (-0.3355, -0.4806, 1.0645), (-0.3176, -0.4806, 1.0741), (-0.3019, -0.4806, 1.0869), (-0.2891, -0.4806, 1.1026), (-0.2795, -0.4806, 1.1205), (-0.2737, -0.4806, 1.1398), (-0.2250, -0.5055, 1.1600), (-0.2279, -0.5055, 1.1893), (-0.2364, -0.5055, 1.2174), (-0.2503, -0.5055, 1.2433), (-0.2689, -0.5055, 1.2661), (-0.2917, -0.5055, 1.2847), (-0.3176, -0.5055, 1.2986), (-0.3457, -0.5055, 1.3071), (-0.3750, -0.5055, 1.3100), (-0.4043, -0.5055, 1.3071), (-0.4324, -0.5055, 1.2986), (-0.4583, -0.5055, 1.2847), (-0.4811, -0.5055, 1.2661), (-0.4997, -0.5055, 1.2433), (-0.5136, -0.5055, 1.2174), (-0.5221, -0.5055, 1.1893), (-0.5250, -0.5055, 1.1600), (-0.5221, -0.5055, 1.1307), (-0.5136, -0.5055, 1.1026), (-0.4997, -0.5055, 1.0767), (-0.4811, -0.5055, 1.0539), (-0.4583, -0.5055, 1.0353), (-0.4324, -0.5055, 1.0214), (-0.4043, -0.5055, 1.0129), (-0.3750, -0.5055, 1.0100), (-0.3457, -0.5055, 1.0129), (-0.3176, -0.5055, 1.0214), (-0.2917, -0.5055, 1.0353), (-0.2689, -0.5055, 1.0539), (-0.2503, -0.5055, 1.0767), (-0.2364, -0.5055, 1.1026), (-0.2279, -0.5055, 1.1307), (-0.1841, -0.5391, 1.1600), (-0.1877, -0.5391, 1.1972), (-0.1986, -0.5391, 1.2331), (-0.2163, -0.5391, 1.2661), (-0.2400, -0.5391, 1.2950), (-0.2689, -0.5391, 1.3187), (-0.3019, -0.5391, 1.3364), (-0.3378, -0.5391, 1.3473), (-0.3750, -0.5391, 1.3509), (-0.4122, -0.5391, 1.3473), (-0.4481, -0.5391, 1.3364), (-0.4811, -0.5391, 1.3187), (-0.5100, -0.5391, 1.2950), (-0.5337, -0.5391, 1.2661), (-0.5514, -0.5391, 1.2331), (-0.5623, -0.5391, 1.1972), (-0.5659, -0.5391, 1.1600), (-0.5623, -0.5391, 1.1228), (-0.5514, -0.5391, 1.0869), (-0.5337, -0.5391, 1.0539), (-0.5100, -0.5391, 1.0250), (-0.4811, -0.5391, 1.0013), (-0.4481, -0.5391, 0.9836), (-0.4122, -0.5391, 0.9727), (-0.3750, -0.5391, 0.9691), (-0.3378, -0.5391, 0.9727), (-0.3019, -0.5391, 0.9836), (-0.2689, -0.5391, 1.0013), (-0.2400, -0.5391, 1.0250), (-0.2163, -0.5391, 1.0539), (-0.1986, -0.5391, 1.0869), (-0.1877, -0.5391, 1.1228), (-0.1505, -0.5800, 1.1600), (-0.1548, -0.5800, 1.2038), (-0.1676, -0.5800, 1.2459), (-0.1883, -0.5800, 1.2847), (-0.2163, -0.5800, 1.3187), (-0.2503, -0.5800, 1.3467), (-0.2891, -0.5800, 1.3674), (-0.3312, -0.5800, 1.3802), (-0.3750, -0.5800, 1.3845), (-0.4188, -0.5800, 1.3802), (-0.4609, -0.5800, 1.3674), (-0.4997, -0.5800, 1.3467), (-0.5337, -0.5800, 1.3187), (-0.5617, -0.5800, 1.2847), (-0.5824, -0.5800, 1.2459), (-0.5952, -0.5800, 1.2038), (-0.5995, -0.5800, 1.1600), (-0.5952, -0.5800, 1.1162), (-0.5824, -0.5800, 1.0741), (-0.5617, -0.5800, 1.0353), (-0.5337, -0.5800, 1.0013), (-0.4997, -0.5800, 0.9733), (-0.4609, -0.5800, 0.9526), (-0.4188, -0.5800, 0.9398), (-0.3750, -0.5800, 0.9355), (-0.3312, -0.5800, 0.9398), (-0.2891, -0.5800, 0.9526), (-0.2503, -0.5800, 0.9733), (-0.2163, -0.5800, 1.0013), (-0.1883, -0.5800, 1.0353), (-0.1676, -0.5800, 1.0741), (-0.1548, -0.5800, 1.1162), (-0.1256, -0.6267, 1.1600), (-0.1303, -0.6267, 1.2087), (-0.1445, -0.6267, 1.2555), (-0.1676, -0.6267, 1.2986), (-0.1986, -0.6267, 1.3364), (-0.2364, -0.6267, 1.3674), (-0.2795, -0.6267, 1.3905), (-0.3263, -0.6267, 1.4047), (-0.3750, -0.6267, 1.4094), (-0.4237, -0.6267, 1.4047), (-0.4705, -0.6267, 1.3905), (-0.5136, -0.6267, 1.3674), (-0.5514, -0.6267, 1.3364), (-0.5824, -0.6267, 1.2986), (-0.6055, -0.6267, 1.2555), (-0.6197, -0.6267, 1.2087), (-0.6244, -0.6267, 1.1600), (-0.6197, -0.6267, 1.1113), (-0.6055, -0.6267, 1.0645), (-0.5824, -0.6267, 1.0214), (-0.5514, -0.6267, 0.9836), (-0.5136, -0.6267, 0.9526), (-0.4705, -0.6267, 0.9295), (-0.4237, -0.6267, 0.9153), (-0.3750, -0.6267, 0.9106), (-0.3263, -0.6267, 0.9153), (-0.2795, -0.6267, 0.9295), (-0.2364, -0.6267, 0.9526), (-0.1986, -0.6267, 0.9836), (-0.1676, -0.6267, 1.0214), (-0.1445, -0.6267, 1.0645), (-0.1303, -0.6267, 1.1113), (-0.1102, -0.6773, 1.1600), (-0.1153, -0.6773, 1.2117), (-0.1303, -0.6773, 1.2613), (-0.1548, -0.6773, 1.3071), (-0.1877, -0.6773, 1.3473), (-0.2279, -0.6773, 1.3802), (-0.2737, -0.6773, 1.4047), (-0.3233, -0.6773, 1.4197), (-0.3750, -0.6773, 1.4248), (-0.4267, -0.6773, 1.4197), (-0.4763, -0.6773, 1.4047), (-0.5221, -0.6773, 1.3802), (-0.5623, -0.6773, 1.3473), (-0.5952, -0.6773, 1.3071), (-0.6197, -0.6773, 1.2613), (-0.6347, -0.6773, 1.2117), (-0.6398, -0.6773, 1.1600), (-0.6347, -0.6773, 1.1083), (-0.6197, -0.6773, 1.0587), (-0.5952, -0.6773, 1.0129), (-0.5623, -0.6773, 0.9727), (-0.5221, -0.6773, 0.9398), (-0.4763, -0.6773, 0.9153), (-0.4267, -0.6773, 0.9003), (-0.3750, -0.6773, 0.8952), (-0.3233, -0.6773, 0.9003), (-0.2737, -0.6773, 0.9153), (-0.2279, -0.6773, 0.9398), (-0.1877, -0.6773, 0.9727), (-0.1548, -0.6773, 1.0129), (-0.1303, -0.6773, 1.0587), (-0.1153, -0.6773, 1.1083), (-0.1050, -0.7300, 1.1600), (-0.1102, -0.7300, 1.2127), (-0.1256, -0.7300, 1.2633), (-0.1505, -0.7300, 1.3100), (-0.1841, -0.7300, 1.3509), (-0.2250, -0.7300, 1.3845), (-0.2717, -0.7300, 1.4094), (-0.3223, -0.7300, 1.4248), (-0.3750, -0.7300, 1.4300), (-0.4277, -0.7300, 1.4248), (-0.4783, -0.7300, 1.4094), (-0.5250, -0.7300, 1.3845), (-0.5659, -0.7300, 1.3509), (-0.5995, -0.7300, 1.3100), (-0.6244, -0.7300, 1.2633), (-0.6398, -0.7300, 1.2127), (-0.6450, -0.7300, 1.1600), (-0.6398, -0.7300, 1.1073), (-0.6244, -0.7300, 1.0567), (-0.5995, -0.7300, 1.0100), (-0.5659, -0.7300, 0.9691), (-0.5250, -0.7300, 0.9355), (-0.4783, -0.7300, 0.9106), (-0.4277, -0.7300, 0.8952), (-0.3750, -0.7300, 0.8900), (-0.3223, -0.7300, 0.8952), (-0.2717, -0.7300, 0.9106), (-0.2250, -0.7300, 0.9355), (-0.1841, -0.7300, 0.9691), (-0.1505, -0.7300, 1.0100), (-0.1256, -0.7300, 1.0567), (-0.1102, -0.7300, 1.1073), (-0.1102, -0.7827, 1.1600), (-0.1153, -0.7827, 1.2117), (-0.1303, -0.7827, 1.2613), (-0.1548, -0.7827, 1.3071), (-0.1877, -0.7827, 1.3473), (-0.2279, -0.7827, 1.3802), (-0.2737, -0.7827, 1.4047), (-0.3233, -0.7827, 1.4197), (-0.3750, -0.7827, 1.4248), (-0.4267, -0.7827, 1.4197), (-0.4763, -0.7827, 1.4047), (-0.5221, -0.7827, 1.3802), (-0.5623, -0.7827, 1.3473), (-0.5952, -0.7827, 1.3071), (-0.6197, -0.7827, 1.2613), (-0.6347, -0.7827, 1.2117), (-0.6398, -0.7827, 1.1600), (-0.6347, -0.7827, 1.1083), (-0.6197, -0.7827, 1.0587), (-0.5952, -0.7827, 1.0129), (-0.5623, -0.7827, 0.9727), (-0.5221, -0.7827, 0.9398), (-0.4763, -0.7827, 0.9153), (-0.4267, -0.7827, 0.9003), (-0.3750, -0.7827, 0.8952), (-0.3233, -0.7827, 0.9003), (-0.2737, -0.7827, 0.9153), (-0.2279, -0.7827, 0.9398), (-0.1877, -0.7827, 0.9727), (-0.1548, -0.7827, 1.0129), (-0.1303, -0.7827, 1.0587), (-0.1153, -0.7827, 1.1083), (-0.1256, -0.8333, 1.1600), (-0.1303, -0.8333, 1.2087), (-0.1445, -0.8333, 1.2555), (-0.1676, -0.8333, 1.2986), (-0.1986, -0.8333, 1.3364), (-0.2364, -0.8333, 1.3674), (-0.2795, -0.8333, 1.3905), (-0.3263, -0.8333, 1.4047), (-0.3750, -0.8333, 1.4094), (-0.4237, -0.8333, 1.4047), (-0.4705, -0.8333, 1.3905), (-0.5136, -0.8333, 1.3674), (-0.5514, -0.8333, 1.3364), (-0.5824, -0.8333, 1.2986), (-0.6055, -0.8333, 1.2555), (-0.6197, -0.8333, 1.2087), (-0.6244, -0.8333, 1.1600), (-0.6197, -0.8333, 1.1113), (-0.6055, -0.8333, 1.0645), (-0.5824, -0.8333, 1.0214), (-0.5514, -0.8333, 0.9836), (-0.5136, -0.8333, 0.9526), (-0.4705, -0.8333, 0.9295), (-0.4237, -0.8333, 0.9153), (-0.3750, -0.8333, 0.9106), (-0.3263, -0.8333, 0.9153), (-0.2795, -0.8333, 0.9295), (-0.2364, -0.8333, 0.9526), (-0.1986, -0.8333, 0.9836), (-0.1676, -0.8333, 1.0214), (-0.1445, -0.8333, 1.0645), (-0.1303, -0.8333, 1.1113), (-0.1505, -0.8800, 1.1600), (-0.1548, -0.8800, 1.2038), (-0.1676, -0.8800, 1.2459), (-0.1883, -0.8800, 1.2847), (-0.2163, -0.8800, 1.3187), (-0.2503, -0.8800, 1.3467), (-0.2891, -0.8800, 1.3674), (-0.3312, -0.8800, 1.3802), (-0.3750, -0.8800, 1.3845), (-0.4188, -0.8800, 1.3802), (-0.4609, -0.8800, 1.3674), (-0.4997, -0.8800, 1.3467), (-0.5337, -0.8800, 1.3187), (-0.5617, -0.8800, 1.2847), (-0.5824, -0.8800, 1.2459), (-0.5952, -0.8800, 1.2038), (-0.5995, -0.8800, 1.1600), (-0.5952, -0.8800, 1.1162), (-0.5824, -0.8800, 1.0741), (-0.5617, -0.8800, 1.0353), (-0.5337, -0.8800, 1.0013), (-0.4997, -0.8800, 0.9733), (-0.4609, -0.8800, 0.9526), (-0.4188, -0.8800, 0.9398), (-0.3750, -0.8800, 0.9355), (-0.3312, -0.8800, 0.9398), (-0.2891, -0.8800, 0.9526), (-0.2503, -0.8800, 0.9733), (-0.2163, -0.8800, 1.0013), (-0.1883, -0.8800, 1.0353), (-0.1676, -0.8800, 1.0741), (-0.1548, -0.8800, 1.1162), (-0.1841, -0.9209, 1.1600), (-0.1877, -0.9209, 1.1972), (-0.1986, -0.9209, 1.2331), (-0.2163, -0.9209, 1.2661), (-0.2400, -0.9209, 1.2950), (-0.2689, -0.9209, 1.3187), (-0.3019, -0.9209, 1.3364), (-0.3378, -0.9209, 1.3473), (-0.3750, -0.9209, 1.3509), (-0.4122, -0.9209, 1.3473), (-0.4481, -0.9209, 1.3364), (-0.4811, -0.9209, 1.3187), (-0.5100, -0.9209, 1.2950), (-0.5337, -0.9209, 1.2661), (-0.5514, -0.9209, 1.2331), (-0.5623, -0.9209, 1.1972), (-0.5659, -0.9209, 1.1600), (-0.5623, -0.9209, 1.1228), (-0.5514, -0.9209, 1.0869), (-0.5337, -0.9209, 1.0539), (-0.5100, -0.9209, 1.0250), (-0.4811, -0.9209, 1.0013), (-0.4481, -0.9209, 0.9836), (-0.4122, -0.9209, 0.9727), (-0.3750, -0.9209, 0.9691), (-0.3378, -0.9209, 0.9727), (-0.3019, -0.9209, 0.9836), (-0.2689, -0.9209, 1.0013), (-0.2400, -0.9209, 1.0250), (-0.2163, -0.9209, 1.0539), (-0.1986, -0.9209, 1.0869), (-0.1877, -0.9209, 1.1228), (-0.2250, -0.9545, 1.1600), (-0.2279, -0.9545, 1.1893), (-0.2364, -0.9545, 1.2174), (-0.2503, -0.9545, 1.2433), (-0.2689, -0.9545, 1.2661), (-0.2917, -0.9545, 1.2847), (-0.3176, -0.9545, 1.2986), (-0.3457, -0.9545, 1.3071), (-0.3750, -0.9545, 1.3100), (-0.4043, -0.9545, 1.3071), (-0.4324, -0.9545, 1.2986), (-0.4583, -0.9545, 1.2847), (-0.4811, -0.9545, 1.2661), (-0.4997, -0.9545, 1.2433), (-0.5136, -0.9545, 1.2174), (-0.5221, -0.9545, 1.1893), (-0.5250, -0.9545, 1.1600), (-0.5221, -0.9545, 1.1307), (-0.5136, -0.9545, 1.1026), (-0.4997, -0.9545, 1.0767), (-0.4811, -0.9545, 1.0539), (-0.4583, -0.9545, 1.0353), (-0.4324, -0.9545, 1.0214), (-0.4043, -0.9545, 1.0129), (-0.3750, -0.9545, 1.0100), (-0.3457, -0.9545, 1.0129), (-0.3176, -0.9545, 1.0214), (-0.2917, -0.9545, 1.0353), (-0.2689, -0.9545, 1.0539), (-0.2503, -0.9545, 1.0767), (-0.2364, -0.9545, 1.1026), (-0.2279, -0.9545, 1.1307), (-0.2717, -0.9794, 1.1600), (-0.2737, -0.9794, 1.1802), (-0.2795, -0.9794, 1.1995), (-0.2891, -0.9794, 1.2174), (-0.3019, -0.9794, 1.2331), (-0.3176, -0.9794, 1.2459), (-0.3355, -0.9794, 1.2555), (-0.3548, -0.9794, 1.2613), (-0.3750, -0.9794, 1.2633), (-0.3952, -0.9794, 1.2613), (-0.4145, -0.9794, 1.2555), (-0.4324, -0.9794, 1.2459), (-0.4481, -0.9794, 1.2331), (-0.4609, -0.9794, 1.2174), (-0.4705, -0.9794, 1.1995), (-0.4763, -0.9794, 1.1802), (-0.4783, -0.9794, 1.1600), (-0.4763, -0.9794, 1.1398), (-0.4705, -0.9794, 1.1205), (-0.4609, -0.9794, 1.1026), (-0.4481, -0.9794, 1.0869), (-0.4324, -0.9794, 1.0741), (-0.4145, -0.9794, 1.0645), (-0.3952, -0.9794, 1.0587), (-0.3750, -0.9794, 1.0567), (-0.3548, -0.9794, 1.0587), (-0.3355, -0.9794, 1.0645), (-0.3176, -0.9794, 1.0741), (-0.3019, -0.9794, 1.0869), (-0.2891, -0.9794, 1.1026), (-0.2795, -0.9794, 1.1205), (-0.2737, -0.9794, 1.1398), (-0.3223, -0.9948, 1.1600), (-0.3233, -0.9948, 1.1703), (-0.3263, -0.9948, 1.1802), (-0.3312, -0.9948, 1.1893), (-0.3378, -0.9948, 1.1972), (-0.3457, -0.9948, 1.2038), (-0.3548, -0.9948, 1.2087), (-0.3647, -0.9948, 1.2117), (-0.3750, -0.9948, 1.2127), (-0.3853, -0.9948, 1.2117), (-0.3952, -0.9948, 1.2087), (-0.4043, -0.9948, 1.2038), (-0.4122, -0.9948, 1.1972), (-0.4188, -0.9948, 1.1893), (-0.4237, -0.9948, 1.1802), (-0.4267, -0.9948, 1.1703), (-0.4277, -0.9948, 1.1600), (-0.4267, -0.9948, 1.1497), (-0.4237, -0.9948, 1.1398), (-0.4188, -0.9948, 1.1307), (-0.4122, -0.9948, 1.1228), (-0.4043, -0.9948, 1.1162), (-0.3952, -0.9948, 1.1113), (-0.3853, -0.9948, 1.1083), (-0.3750, -0.9948, 1.1073), (-0.3647, -0.9948, 1.1083), (-0.3548, -0.9948, 1.1113), (-0.3457, -0.9948, 1.1162), (-0.3378, -0.9948, 1.1228), (-0.3312, -0.9948, 1.1307), (-0.3263, -0.9948, 1.1398), (-0.3233, -0.9948, 1.1497), (-0.3750, -1.0000, 1.1600), (-0.3750, -1.0000, 1.1600), (-0.3750, -1.0000, 1.1600), (-0.3750, -1.0000, 1.1600), (-0.3750, -1.0000, 1.1600), (-0.3750, -1.0000, 1.1600), (-0.3750, -1.0000, 1.1600), (-0.3750, -1.0000, 1.1600), (-0.3750, -1.0000, 1.1600), (-0.3750, -1.0000, 1.1600), (-0.3750, -1.0000, 1.1600), (-0.3750, -1.0000, 1.1600), (-0.3750, -1.0000, 1.1600), (-0.3750, -1.0000, 1.1600), (-0.3750, -1.0000, 1.1600), (-0.3750, -1.0000, 1.1600), (-0.3750, -1.0000, 1.1600), (-0.3750, -1.0000, 1.1600), (-0.3750, -1.0000, 1.1600), (-0.3750, -1.0000, 1.1600), (-0.3750, -1.0000, 1.1600), (-0.3750, -1.0000, 1.1600), (-0.3750, -1.0000, 1.1600), (-0.3750, -1.0000, 1.1600), (-0.3750, -1.0000, 1.1600), (-0.3750, -1.0000, 1.1600), (-0.3750, -1.0000, 1.1600), (-0.3750, -1.0000, 1.1600), (-0.3750, -1.0000, 1.1600), (-0.3750, -1.0000, 1.1600), (-0.3750, -1.0000, 1.1600), (-0.3750, -1.0000, 1.1600)]
        uniform token subdivisionScheme = "none"
    }

    def RectLight "CeilingLight"
    {
        color3f inputs:color = (1, 1, 1)
        float inputs:height = 0.3
        float inputs:intensity = 15
        bool inputs:normalize = 0
        float inputs:width = 0.5
        double3 xformOp:rotateXYZ = (90, 0, 0)
        double3 xformOp:translate = (0, 0.999, 1)
        uniform token[] xformOpOrder = ["xformOp:translate", "xformOp:rotateXYZ"]
    }

    def Camera "RenderCam"
    {
        float2 clippingRange = (0.1, 1000)
        float focalLength = 50
        float focusDistance
        float fStop
        float horizontalAperture = 46.631
        float verticalAperture = 46.631
        double3 xformOp:rotateXYZ = (0, 180, 0)
        double3 xformOp:translate = (0, 0, -2.5)
        uniform token[] xformOpOrder = ["xformOp:translate", "xformOp:rotateXYZ"]
    }
}
